<svg xmlns="http://www.w3.org/2000/svg" xmlns:xlink="http://www.w3.org/1999/xlink" width="245" height="85.235" viewBox="0 0 245 85.235">
  <defs>
    <clipPath id="clip-path">
      <rect id="Rectangle_42" data-name="Rectangle 42" width="215.588" height="85.126"/>
    </clipPath>
    <clipPath id="clip-path-2">
      <rect id="Rectangle_41" data-name="Rectangle 41" width="215.55" height="85.076" transform="translate(0 0)" fill="none"/>
    </clipPath>
  </defs>
  <g id="_230x80-PelsueBLCK" data-name="230x80-PelsueBLCK" transform="translate(0 -0.106)">
    <g id="Layer_2_1_">
      <rect id="Rectangle_40" data-name="Rectangle 40" width="245" height="85" transform="translate(0 0.342)" fill="rgba(255,255,255,0)"/>
    </g>
    <g id="pelsue" transform="translate(15.041 0.107)">
      <g id="Group_6" data-name="Group 6" transform="translate(0)">
        <g id="Group_5" data-name="Group 5" clip-path="url(#clip-path)">
          <g id="XMLID_1_" transform="translate(0.049 0.882)" clip-path="url(#clip-path-2)">
            <g id="Pelsue_Logo_3_3_" transform="translate(-0.185 -0.185)">
              <path id="Path_31" data-name="Path 31" d="M98.46,12.514H96.8l-.185.923h1.661c.185,0,.554,0,.554-.369V12.7C99.014,12.514,99.014,12.514,98.46,12.514Zm0,3.322-.738-1.476H96.615l-.369,1.292h-.923l.738-4.06h2.768c1.476,0,1.292.554,1.292,1.107v.369c0,.738-.554,1.107-1.292,1.107.185,0,.185,0,.185.185l.738,1.292Z" transform="translate(114.321 43.404)" fill-rule="evenodd"/>
              <path id="Path_32" data-name="Path 32" d="M94.112,13.886a3.506,3.506,0,1,1,7.013,0,3.393,3.393,0,0,1-3.506,3.506h0a3.77,3.77,0,0,1-3.506-3.506Z" transform="translate(114.241 43.323)" fill="none" stroke="#fff" stroke-width="0.432"/>
              <path id="Path_33" data-name="Path 33" d="M62.961,10.38H93.6l-1.107,6.644H69.051l-.923,5.167H90.643l-1.107,6.828H67.021L66.1,34.925H89.535l-1.107,6.644H57.609Z" transform="translate(111.804 43.323)" fill-rule="evenodd"/>
              <path id="Path_34" data-name="Path 34" d="M51.295,31.6l3.691-21.038h7.382L58.676,31.6c-1.107,11.073-9.227,10.15-14.026,10.15h-13.1c-4.245,0-11.073-1.107-8.858-10.15L26.381,10.38h7.382L30.072,31.6c-.554,3.322-.738,3.506,2.953,3.691H46.866C49.818,35.294,50.741,35.478,51.295,31.6Z" transform="translate(109.445 43.323)" fill-rule="evenodd"/>
              <path id="Path_35" data-name="Path 35" d="M25.4,17.4c.554-3.506-.369-7.2-12.918-7.2H6.392c-9.227,0-13.841.923-15.686,8.858C-11.324,27.554-5.972,29.4,1.594,29.4h8.489c5.167,0,7.013-.738,6.459,2.768-.738,3.506-2.768,2.953-6.09,2.953H-26.457l4.06-24.545h-7.382l-5.167,31.188H8.607c6.644,0,13.472-.185,14.948-8.489l.369-2.215c.738-4.614-.923-8.3-10.888-8.3H2.7c-3.691,0-5.721.554-5.167-2.584s2.215-3.322,6.644-3.322h4.8c10.888.185,9.6-.369,8.858,3.691h6.644Z" transform="translate(105.627 43.311)" fill-rule="evenodd"/>
              <path id="Path_36" data-name="Path 36" d="M-61.253,10.38h30.819l-1.292,6.644H-55.163l-.738,5.167h22.515l-1.292,6.828h-22.33l-1.107,5.905h23.437l-.923,6.644h-31Z" transform="translate(103.514 43.323)" fill-rule="evenodd"/>
              <path id="Path_37" data-name="Path 37" d="M-73.708,17.012H-89.394l-1.292,7.013h15.317c.923,0,4.06.369,4.429-2.4l.554-2.768C-69.832,17.566-69.832,17.2-73.708,17.012Zm1.107-6.459c10.7,0,9.781,4.245,9.6,8.3l-.554,3.137c-1.661,8.12-6.828,8.674-12.734,8.858H-91.978l-1.845,10.888h-7.382l5.352-31.188H-72.6Z" transform="translate(101.205 43.334)" fill-rule="evenodd"/>
              <path id="Path_38" data-name="Path 38" d="M-16.9,3.493c5.536,7.013,19.008,5.167,30.081-4.245S28.872-23.635,23.52-30.463,4.512-35.631-6.561-26.219-22.247-3.519-16.9,3.493ZM-25.015.91c-4.429-9.412,4.8-23.437,20.3-31.373s31.926-6.828,36.171,2.584S26.842-4.442,11.156,3.493-20.586,10.321-25.015.91Z" transform="translate(106.216 40.244)" fill="#fd0"/>
              <path id="Path_39" data-name="Path 39" d="M-.506-25.568l5.721-14.21-.369-.185L-4.566-25.568h-7.566c-.185,0-.369.185-.554.369h0c0,.185.185.369.554.369h0c2.4,0,4.614.185,6.644.369L-16.746-7.114l8.489-.738L-22.836,32.195l.369.185L-2.72-1.393C9.644-2.685,22.747-8.221,22.562-15.418,22.562-24.277,10.936-25.568-.506-25.568Zm14.764,10.15c0,4.8-7.566,9.412-15.317,11.257l4.983-8.858-9.965.738,4.8-11.257c10.519,1.107,15.5,3.875,15.5,8.12Z" transform="translate(106.435 39.963)"/>
            </g>
          </g>
        </g>
      </g>
    </g>
  </g>
</svg>
