<svg id="Group_136" data-name="Group 136" xmlns="http://www.w3.org/2000/svg" xmlns:xlink="http://www.w3.org/1999/xlink" width="172.124" height="67.951" viewBox="0 0 172.124 67.951">
  <defs>
    <clipPath id="clip-path">
      <rect id="Rectangle_107" data-name="Rectangle 107" width="172.124" height="67.951" fill="none"/>
    </clipPath>
    <clipPath id="clip-path-2">
      <rect id="Rectangle_106" data-name="Rectangle 106" width="172.094" height="67.962" fill="none"/>
    </clipPath>
  </defs>
  <g id="Group_135" data-name="Group 135" clip-path="url(#clip-path)">
    <g id="Group_134" data-name="Group 134" transform="translate(0.011 0.652)">
      <g id="Group_133" data-name="Group 133" clip-path="url(#clip-path-2)">
        <path id="Path_275" data-name="Path 275" d="M887.53,236.343h-1.356l-.133.752h1.326c.118,0,.427,0,.472-.251v-.295c.088-.162.088-.206-.309-.206m0,2.594-.6-1.149h-.958l-.295,1.105h-.781l.56-3.3H887.6c1.135,0,1.046.457,1.017.884v.339a1,1,0,0,1-1.032.914.279.279,0,0,1,.206.133l.531,1.031Z" transform="translate(-717.712 -191.73)" fill="#fff" fill-rule="evenodd"/>
        <path id="Path_276" data-name="Path 276" d="M880.138,232.417a2.814,2.814,0,1,1,2.83,2.8A2.814,2.814,0,0,1,880.138,232.417Z" transform="translate(-713.856 -186.861)" fill="none" stroke="#fff" stroke-width="1.95"/>
        <path id="Path_277" data-name="Path 277" d="M719.364,230.215h24.56l-.942,5.348H724.3l-.707,4.112h17.961l-.943,5.333H722.695l-.766,4.758h18.726l-.855,5.26H715.136Z" transform="translate(-580.03 -187.37)" fill="#fff" fill-rule="evenodd"/>
        <path id="Path_278" data-name="Path 278" d="M578.854,247.2l2.947-16.87h5.893l-2.947,16.87c-.958,8.841-7.367,8.178-11.182,8.178H563.074c-3.462,0-8.839-.914-7.087-8.178l2.947-16.915h5.893L561.881,247.2c-.427,2.609-.589,2.859,2.342,2.947h11.066c2.4-.074,3.079.118,3.565-2.947" transform="translate(-450.672 -187.43)" fill="#fff" fill-rule="evenodd"/>
        <path id="Path_279" data-name="Path 279" d="M346.518,234.6c.383-2.8-.295-5.775-10.313-5.79h-4.789c-7.367,0-10.991.811-12.553,7.072-1.621,6.733,2.609,8.222,8.767,8.325h6.851c4.11,0,5.672-.663,5.1,2.165s-2.2,2.373-4.891,2.387H305.22l3.316-19.625h-5.895l-4.154,24.884H333.2c5.333,0,10.784-.177,11.9-6.733l.295-1.724c.59-3.653-.781-6.7-8.708-6.7h-8.176c-2.947,0-4.642.383-4.141-2.135s1.71-2.476,5.289-2.476h3.787c8.678.088,7.647-.368,7.131,2.947H345.9Z" transform="translate(-242.102 -186.232)" fill="#fff" fill-rule="evenodd"/>
        <path id="Path_280" data-name="Path 280" d="M159.626,230.215h24.56l-.956,5.348H164.561l-.707,4.112h17.961l-.958,5.333h-17.9l-.766,4.758H180.9l-.855,5.26H155.4Z" transform="translate(-126.048 -187.37)" fill="#fff" fill-rule="evenodd"/>
        <path id="Path_281" data-name="Path 281" d="M21.892,235.816H9.369L8.4,241.459H20.684c.81,0,3.183.28,3.552-1.885l.4-2.225c.265-1.223.28-1.5-2.741-1.533m.87-5.289c8.575,0,7.883,3.388,7.721,6.674l-.413,2.491c-1.282,6.439-5.392,6.925-10.137,7.043H7.424L5.95,255.411H.057l4.3-24.884Z" transform="translate(-0.058 -187.623)" fill="#fff" fill-rule="evenodd"/>
        <path id="Path_282" data-name="Path 282" d="M345.312,53.522c4.42,5.628,15.117,4.081,24.031-3.434s12.567-18.21,8.205-23.794-15.13-4.1-24.03,3.417-12.582,18.182-8.207,23.81m-6.468-2.137c-3.506-7.485,3.771-18.711,16.207-25.046S380.5,20.93,384,28.415,380.245,47.128,367.8,53.463s-25.446,5.421-28.952-2.078" transform="translate(-274.12 -18.603)" fill="#fd0"/>
        <path id="Path_283" data-name="Path 283" d="M370.748,14.943l4.641-11.315-.324-.177L367.52,14.972h-6.07a.369.369,0,0,0-.383.339c0,.162.133.339.442.339,1.931,0,3.743.162,5.377.295l-9.045,13.879,6.777-.575-11.626,32,.339.162,15.662-27.228c9.813-1.089,20.317-5.51,20.259-11.167-.074-7.043-9.357-8.06-18.5-8.074m11.786,8.074c0,3.83-6.114,7.5-12.273,8.929l4.051-7.057-7.927.575,3.905-9.047c8.3,1.046,12.214,3.154,12.273,6.6Z" transform="translate(-286.31 -3.451)" fill="#fff"/>
      </g>
    </g>
  </g>
</svg>
