<svg xmlns="http://www.w3.org/2000/svg" xmlns:xlink="http://www.w3.org/1999/xlink" width="768" height="668.466" viewBox="0 0 768 668.466">
  <defs>
    <linearGradient id="linear-gradient" x1="0.417" y1="-0.18" x2="1.354" y2="0.974" gradientUnits="objectBoundingBox">
      <stop offset="0" stop-color="#fcb900"/>
      <stop offset="1" stop-color="#fcd900"/>
    </linearGradient>
  </defs>
  <g id="Group_90" data-name="Group 90" transform="translate(-99.242 -0.018)">
    <path id="Path_219" data-name="Path 219" d="M175.1,96c55.823,55.823,89.741,132.845,93.274,211.751S244.585,466.27,193.943,526.8c59.121-13.9,109.762-60.534,129.076-118.241s11.306-122.481-15.781-176.891S233.043,126.149,175.336,96Z" transform="translate(102.819 130.094)" fill="url(#linear-gradient)"/>
    <path id="Path_220" data-name="Path 220" d="M260.71,475.355c75.609-73.96,42.868-261.215-15.31-333.055C434.775,276.087,373.063,484.305,260.71,475.355Z" transform="translate(198.104 192.85)" fill="url(#linear-gradient)"/>
    <path id="Path_221" data-name="Path 221" d="M163.21,204.652c-9.422-31.091-4.475-46.166,2.355-54.174,40.984-48.992,260.508,28.5,391,176.656,66.187,75.138,97.043,154.279,112.353,205.156,3.769-37.215,4.24-88.563-11.07-146.271-36.98-141.089-140.382-219.76-176.656-244.962a568.554,568.554,0,0,1,363.2,313.976,298.461,298.461,0,0,0-1.649-48.05c-13.661-117.535-94.216-195.263-124.837-224.942C535.6,5.62,130.941,9.154,101.028,99.13,94.9,117.973,101.97,149.536,163.21,204.652Z" transform="translate(0 52.062)" fill="url(#linear-gradient)"/>
    <path id="Path_222" data-name="Path 222" d="M144.9,78.882c15.546-2.355,32.5-4.475,50.641-5.653,16.252-1.178,31.562-1.413,45.93-1.413,0-5.889.942-13.9,5.417-21.434C265.732,19.761,328.622,28,369.841,33.658c30.856,4,74.666,13.19,125.308,35.8A633.138,633.138,0,0,0,393.631,50.146c-15.31-1.649-30.149-2.591-44.282-3.3a38.82,38.82,0,0,1-8.244,15.075c-11.07,12.248-26.381,12.719-29.443,12.719a797.472,797.472,0,0,1,215.991,41.691,816.718,816.718,0,0,1,277.7,162.052C756.835,202.3,704.309,154.961,669.214,128.11,533.071,22.823,306.952-50.666,181.409,43.079A201.814,201.814,0,0,0,144.9,78.646Z" transform="translate(61.886 0)" fill="url(#linear-gradient)"/>
  </g>
</svg>
